<svg width="183" height="36" viewBox="0 0 183 36" fill="none" xmlns="http://www.w3.org/2000/svg">
<rect y="3.16504" width="1.43868" height="29.3491" rx="0.287736" fill="#F93F04"/>
<rect x="3.74023" y="3.16504" width="5.17924" height="29.3491" rx="0.287736" fill="#F93F04"/>
<rect x="15" y="3" width="9.78302" height="29.3491" rx="0.287736" fill="#F93F04"/>
<path d="M31.1797 21.7185H33.5276C33.7302 22.2157 33.9972 22.63 34.3287 22.9615C35.1573 23.7902 36.2254 24.2045 37.5329 24.2045C38.7115 24.2045 39.577 24.0112 40.1294 23.6245C40.7003 23.2377 40.9857 22.7405 40.9857 22.1328C40.9857 21.8014 40.866 21.5159 40.6266 21.2765C40.4056 21.0371 40.0373 20.8254 39.5217 20.6412C39.0061 20.4571 38.5457 20.3189 38.1406 20.2269C37.7539 20.1164 37.183 19.9875 36.428 19.8402C33.3895 19.214 31.8702 17.8605 31.8702 15.7796C31.8702 14.6931 32.3306 13.7816 33.2514 13.045C34.1721 12.29 35.4612 11.9125 37.1186 11.9125C39.181 11.9125 40.8108 12.603 42.0078 13.9841C42.4866 14.6103 42.8364 15.3008 43.0574 16.0558H40.7095C40.5438 15.6875 40.3044 15.3469 39.9913 15.0338C39.2915 14.334 38.3339 13.9841 37.1186 13.9841C36.1426 13.9841 35.3875 14.1683 34.8535 14.5366C34.3379 14.9049 34.0801 15.3192 34.0801 15.7796C34.0801 16.1111 34.1906 16.3965 34.4115 16.6359C34.6509 16.8753 35.0284 17.0871 35.5441 17.2712C36.0597 17.4554 36.5109 17.6027 36.8976 17.7132C37.3027 17.8053 37.8828 17.925 38.6378 18.0723C41.6763 18.6984 43.1955 20.0519 43.1955 22.1328C43.1955 23.3114 42.6983 24.2966 41.7039 25.0885C40.7095 25.8803 39.3192 26.2762 37.5329 26.2762C35.2862 26.2762 33.5552 25.5212 32.3398 24.0112C31.8242 23.3482 31.4375 22.584 31.1797 21.7185ZM46.2275 26V12.1887H48.4374V14.2604H48.465C48.7412 13.8184 49.1003 13.4317 49.5423 13.1002C50.5551 12.3084 51.7521 11.9125 53.1332 11.9125C54.809 11.9125 56.1441 12.4465 57.1385 13.5146C58.1513 14.5642 58.6577 16.0098 58.6577 17.8513V26H56.4479V17.9894C56.4479 16.6635 56.1165 15.6691 55.4535 15.0062C54.7906 14.3248 53.879 13.9841 52.7189 13.9841C51.4482 13.9841 50.417 14.4077 49.6251 15.2548C48.8333 16.0835 48.4374 17.1792 48.4374 18.5419V26H46.2275ZM63.5735 24.2322C62.2292 22.8694 61.557 21.1568 61.557 19.0943C61.557 17.0318 62.2292 15.3192 63.5735 13.9565C64.9178 12.5938 66.5936 11.9125 68.6008 11.9125C70.6081 11.9125 72.2838 12.5846 73.6281 13.9289C74.9724 15.2732 75.6446 16.949 75.6446 18.9562V19.7849H63.7668C63.9142 21.074 64.439 22.1328 65.3413 22.9615C66.2437 23.7902 67.3302 24.2045 68.6008 24.2045C69.9635 24.2045 71.1329 23.7902 72.1089 22.9615C72.5508 22.5932 72.9007 22.1789 73.1585 21.7185H75.3684C75.0369 22.584 74.5673 23.3482 73.9596 24.0112C72.5232 25.5212 70.737 26.2762 68.6008 26.2762C66.5936 26.2762 64.9178 25.5949 63.5735 24.2322ZM63.8221 17.8513H73.2967C73.1309 16.7648 72.6245 15.8533 71.7774 15.1167C70.9303 14.3617 69.8715 13.9841 68.6008 13.9841C67.3302 13.9841 66.2621 14.3617 65.3966 15.1167C64.5311 15.8533 64.0062 16.7648 63.8221 17.8513ZM79.7837 24.2322C78.4946 22.851 77.8501 21.1384 77.8501 19.0943C77.8501 17.0503 78.4946 15.3469 79.7837 13.9841C81.0727 12.603 82.638 11.9125 84.4795 11.9125C85.6397 11.9125 86.6157 12.1334 87.4075 12.5754C88.2178 13.0174 88.8071 13.4962 89.1754 14.0118L89.424 14.4261H89.4516V12.1887H91.6614V26H89.4516V23.7902H89.424L89.1754 24.1769C88.8439 24.6741 88.273 25.1529 87.4628 25.6133C86.6525 26.0552 85.6581 26.2762 84.4795 26.2762C82.638 26.2762 81.0727 25.5949 79.7837 24.2322ZM81.3858 15.4205C80.5019 16.3781 80.0599 17.6027 80.0599 19.0943C80.0599 20.586 80.5019 21.8106 81.3858 22.7682C82.2881 23.7257 83.4114 24.2045 84.7557 24.2045C86.1 24.2045 87.2142 23.7257 88.0981 22.7682C89.0004 21.8106 89.4516 20.586 89.4516 19.0943C89.4516 17.6027 89.0004 16.3781 88.0981 15.4205C87.2142 14.4629 86.1 13.9841 84.7557 13.9841C83.4114 13.9841 82.2881 14.4629 81.3858 15.4205ZM95.5383 26V6.66415H97.7481V17.7132H100.51L104.93 12.1887H107.554L102.444 18.68L107.968 26H105.206L100.51 19.7849H97.7481V26H95.5383ZM110.051 31.2483V12.1887H112.261V14.3985H112.288L112.565 13.9841C112.878 13.5054 113.439 13.045 114.25 12.603C115.06 12.1426 116.054 11.9125 117.233 11.9125C119.074 11.9125 120.64 12.603 121.929 13.9841C123.218 15.3469 123.862 17.0503 123.862 19.0943C123.862 21.1384 123.218 22.851 121.929 24.2322C120.64 25.5949 119.074 26.2762 117.233 26.2762C116.054 26.2762 115.051 26.0552 114.222 25.6133C113.412 25.1529 112.859 24.6741 112.565 24.1769L112.288 23.7902H112.261V31.2483H110.051ZM113.587 15.4205C112.703 16.3781 112.261 17.6027 112.261 19.0943C112.261 20.586 112.703 21.8106 113.587 22.7682C114.489 23.7257 115.612 24.2045 116.957 24.2045C118.301 24.2045 119.415 23.7257 120.299 22.7682C121.201 21.8106 121.652 20.586 121.652 19.0943C121.652 17.6027 121.201 16.3781 120.299 15.4205C119.415 14.4629 118.301 13.9841 116.957 13.9841C115.612 13.9841 114.489 14.4629 113.587 15.4205ZM128.098 24.2322C126.754 22.8694 126.082 21.1568 126.082 19.0943C126.082 17.0318 126.754 15.3192 128.098 13.9565C129.443 12.5938 131.118 11.9125 133.126 11.9125C135.133 11.9125 136.809 12.5846 138.153 13.9289C139.497 15.2732 140.169 16.949 140.169 18.9562V19.7849H128.292C128.439 21.074 128.964 22.1328 129.866 22.9615C130.768 23.7902 131.855 24.2045 133.126 24.2045C134.488 24.2045 135.658 23.7902 136.634 22.9615C137.076 22.5932 137.426 22.1789 137.683 21.7185H139.893C139.562 22.584 139.092 23.3482 138.484 24.0112C137.048 25.5212 135.262 26.2762 133.126 26.2762C131.118 26.2762 129.443 25.5949 128.098 24.2322ZM128.347 17.8513H137.821C137.656 16.7648 137.149 15.8533 136.302 15.1167C135.455 14.3617 134.396 13.9841 133.126 13.9841C131.855 13.9841 130.787 14.3617 129.921 15.1167C129.056 15.8533 128.531 16.7648 128.347 17.8513ZM144.391 24.2322C143.047 22.8694 142.375 21.1568 142.375 19.0943C142.375 17.0318 143.047 15.3192 144.391 13.9565C145.736 12.5938 147.411 11.9125 149.419 11.9125C151.426 11.9125 153.102 12.5846 154.446 13.9289C155.79 15.2732 156.462 16.949 156.462 18.9562V19.7849H144.585C144.732 21.074 145.257 22.1328 146.159 22.9615C147.061 23.7902 148.148 24.2045 149.419 24.2045C150.781 24.2045 151.951 23.7902 152.927 22.9615C153.369 22.5932 153.719 22.1789 153.976 21.7185H156.186C155.855 22.584 155.385 23.3482 154.777 24.0112C153.341 25.5212 151.555 26.2762 149.419 26.2762C147.411 26.2762 145.736 25.5949 144.391 24.2322ZM144.64 17.8513H154.114C153.949 16.7648 153.442 15.8533 152.595 15.1167C151.748 14.3617 150.689 13.9841 149.419 13.9841C148.148 13.9841 147.08 14.3617 146.214 15.1167C145.349 15.8533 144.824 16.7648 144.64 17.8513ZM159.497 26V6.66415H161.706V17.7132H164.469L168.888 12.1887H171.512L166.402 18.68L171.927 26H169.164L164.469 19.7849H161.706V26H159.497Z" fill="#2A2A2A"/>
<rect x="178.109" y="21.292" width="4.89151" height="4.89151" fill="#2A2A2A"/>
</svg>
