<svg width="183" height="36" viewBox="0 0 183 36" fill="none" xmlns="http://www.w3.org/2000/svg">
<rect y="3.16504" width="1.43868" height="29.3491" rx="0.287736" fill="#F93F04"/>
<rect x="3.74023" y="3.16504" width="5.17924" height="29.3491" rx="0.287736" fill="#F93F04"/>
<rect x="15" y="3" width="9.78302" height="29.3491" rx="0.287736" fill="#F93F04"/>
<path d="M31.1787 21.7185H33.5266C33.7292 22.2157 33.9962 22.63 34.3277 22.9615C35.1564 23.7902 36.2244 24.2045 37.5319 24.2045C38.7105 24.2045 39.576 24.0112 40.1284 23.6245C40.6993 23.2377 40.9847 22.7405 40.9847 22.1328C40.9847 21.8014 40.865 21.5159 40.6257 21.2765C40.4047 21.0371 40.0364 20.8254 39.5207 20.6412C39.0051 20.4571 38.5447 20.3189 38.1396 20.2269C37.7529 20.1164 37.182 19.9875 36.427 19.8402C33.3885 19.214 31.8693 17.8605 31.8693 15.7796C31.8693 14.6931 32.3297 13.7816 33.2504 13.045C34.1712 12.29 35.4602 11.9125 37.1176 11.9125C39.1801 11.9125 40.8098 12.603 42.0068 13.9841C42.4856 14.6103 42.8355 15.3008 43.0564 16.0558H40.7085C40.5428 15.6875 40.3034 15.3469 39.9903 15.0338C39.2906 14.334 38.333 13.9841 37.1176 13.9841C36.1416 13.9841 35.3866 14.1683 34.8525 14.5366C34.3369 14.9049 34.0791 15.3192 34.0791 15.7796C34.0791 16.1111 34.1896 16.3965 34.4106 16.6359C34.65 16.8753 35.0275 17.0871 35.5431 17.2712C36.0587 17.4554 36.5099 17.6027 36.8966 17.7132C37.3017 17.8053 37.8818 17.925 38.6368 18.0723C41.6753 18.6984 43.1946 20.0519 43.1946 22.1328C43.1946 23.3114 42.6973 24.2966 41.7029 25.0885C40.7085 25.8803 39.3182 26.2762 37.5319 26.2762C35.2853 26.2762 33.5543 25.5212 32.3389 24.0112C31.8232 23.3482 31.4365 22.584 31.1787 21.7185ZM46.2266 26V12.1887H48.4364V14.2604H48.464C48.7402 13.8184 49.0993 13.4317 49.5413 13.1002C50.5541 12.3084 51.7511 11.9125 53.1322 11.9125C54.808 11.9125 56.1431 12.4465 57.1375 13.5146C58.1503 14.5642 58.6568 16.0098 58.6568 17.8513V26H56.447V17.9894C56.447 16.6635 56.1155 15.6691 55.4525 15.0062C54.7896 14.3248 53.878 13.9841 52.7179 13.9841C51.4473 13.9841 50.416 14.4077 49.6242 15.2548C48.8323 16.0835 48.4364 17.1792 48.4364 18.5419V26H46.2266ZM63.5725 24.2322C62.2282 22.8694 61.5561 21.1568 61.5561 19.0943C61.5561 17.0318 62.2282 15.3192 63.5725 13.9565C64.9168 12.5938 66.5926 11.9125 68.5998 11.9125C70.6071 11.9125 72.2829 12.5846 73.6272 13.9289C74.9715 15.2732 75.6436 16.949 75.6436 18.9562V19.7849H63.7659C63.9132 21.074 64.438 22.1328 65.3404 22.9615C66.2427 23.7902 67.3292 24.2045 68.5998 24.2045C69.9626 24.2045 71.1319 23.7902 72.1079 22.9615C72.5499 22.5932 72.8998 22.1789 73.1576 21.7185H75.3674C75.0359 22.584 74.5663 23.3482 73.9586 24.0112C72.5222 25.5212 70.736 26.2762 68.5998 26.2762C66.5926 26.2762 64.9168 25.5949 63.5725 24.2322ZM63.8211 17.8513H73.2957C73.1299 16.7648 72.6235 15.8533 71.7764 15.1167C70.9293 14.3617 69.8705 13.9841 68.5998 13.9841C67.3292 13.9841 66.2611 14.3617 65.3956 15.1167C64.5301 15.8533 64.0053 16.7648 63.8211 17.8513ZM79.7827 24.2322C78.4936 22.851 77.8491 21.1384 77.8491 19.0943C77.8491 17.0503 78.4936 15.3469 79.7827 13.9841C81.0717 12.603 82.637 11.9125 84.4785 11.9125C85.6387 11.9125 86.6147 12.1334 87.4065 12.5754C88.2168 13.0174 88.8061 13.4962 89.1744 14.0118L89.423 14.4261H89.4506V12.1887H91.6604V26H89.4506V23.7902H89.423L89.1744 24.1769C88.8429 24.6741 88.272 25.1529 87.4618 25.6133C86.6515 26.0552 85.6571 26.2762 84.4785 26.2762C82.637 26.2762 81.0717 25.5949 79.7827 24.2322ZM81.3848 15.4205C80.5009 16.3781 80.0589 17.6027 80.0589 19.0943C80.0589 20.586 80.5009 21.8106 81.3848 22.7682C82.2871 23.7257 83.4105 24.2045 84.7548 24.2045C86.0991 24.2045 87.2132 23.7257 88.0971 22.7682C88.9994 21.8106 89.4506 20.586 89.4506 19.0943C89.4506 17.6027 88.9994 16.3781 88.0971 15.4205C87.2132 14.4629 86.0991 13.9841 84.7548 13.9841C83.4105 13.9841 82.2871 14.4629 81.3848 15.4205ZM95.5373 26V6.66415H97.7471V17.7132H100.509L104.929 12.1887H107.553L102.443 18.68L107.967 26H105.205L100.509 19.7849H97.7471V26H95.5373ZM110.05 31.2483V12.1887H112.26V14.3985H112.287L112.564 13.9841C112.877 13.5054 113.438 13.045 114.249 12.603C115.059 12.1426 116.053 11.9125 117.232 11.9125C119.073 11.9125 120.639 12.603 121.928 13.9841C123.217 15.3469 123.861 17.0503 123.861 19.0943C123.861 21.1384 123.217 22.851 121.928 24.2322C120.639 25.5949 119.073 26.2762 117.232 26.2762C116.053 26.2762 115.05 26.0552 114.221 25.6133C113.411 25.1529 112.858 24.6741 112.564 24.1769L112.287 23.7902H112.26V31.2483H110.05ZM113.586 15.4205C112.702 16.3781 112.26 17.6027 112.26 19.0943C112.26 20.586 112.702 21.8106 113.586 22.7682C114.488 23.7257 115.611 24.2045 116.956 24.2045C118.3 24.2045 119.414 23.7257 120.298 22.7682C121.2 21.8106 121.651 20.586 121.651 19.0943C121.651 17.6027 121.2 16.3781 120.298 15.4205C119.414 14.4629 118.3 13.9841 116.956 13.9841C115.611 13.9841 114.488 14.4629 113.586 15.4205ZM128.097 24.2322C126.753 22.8694 126.081 21.1568 126.081 19.0943C126.081 17.0318 126.753 15.3192 128.097 13.9565C129.442 12.5938 131.117 11.9125 133.125 11.9125C135.132 11.9125 136.808 12.5846 138.152 13.9289C139.496 15.2732 140.168 16.949 140.168 18.9562V19.7849H128.291C128.438 21.074 128.963 22.1328 129.865 22.9615C130.767 23.7902 131.854 24.2045 133.125 24.2045C134.487 24.2045 135.657 23.7902 136.633 22.9615C137.075 22.5932 137.425 22.1789 137.682 21.7185H139.892C139.561 22.584 139.091 23.3482 138.483 24.0112C137.047 25.5212 135.261 26.2762 133.125 26.2762C131.117 26.2762 129.442 25.5949 128.097 24.2322ZM128.346 17.8513H137.82C137.655 16.7648 137.148 15.8533 136.301 15.1167C135.454 14.3617 134.395 13.9841 133.125 13.9841C131.854 13.9841 130.786 14.3617 129.92 15.1167C129.055 15.8533 128.53 16.7648 128.346 17.8513ZM144.39 24.2322C143.046 22.8694 142.374 21.1568 142.374 19.0943C142.374 17.0318 143.046 15.3192 144.39 13.9565C145.735 12.5938 147.41 11.9125 149.418 11.9125C151.425 11.9125 153.101 12.5846 154.445 13.9289C155.789 15.2732 156.461 16.949 156.461 18.9562V19.7849H144.584C144.731 21.074 145.256 22.1328 146.158 22.9615C147.061 23.7902 148.147 24.2045 149.418 24.2045C150.78 24.2045 151.95 23.7902 152.926 22.9615C153.368 22.5932 153.718 22.1789 153.975 21.7185H156.185C155.854 22.584 155.384 23.3482 154.776 24.0112C153.34 25.5212 151.554 26.2762 149.418 26.2762C147.41 26.2762 145.735 25.5949 144.39 24.2322ZM144.639 17.8513H154.113C153.948 16.7648 153.441 15.8533 152.594 15.1167C151.747 14.3617 150.688 13.9841 149.418 13.9841C148.147 13.9841 147.079 14.3617 146.213 15.1167C145.348 15.8533 144.823 16.7648 144.639 17.8513ZM159.496 26V6.66415H161.705V17.7132H164.468L168.887 12.1887H171.511L166.401 18.68L171.926 26H169.164L164.468 19.7849H161.705V26H159.496Z" fill="#2A2A2A"/>
<rect x="178.108" y="21.292" width="4.89151" height="4.89151" fill="#2A2A2A"/>
</svg>
