<svg width="16" height="16" viewBox="0 0 16 16" xmlns="http://www.w3.org/2000/svg">
  <path d="M3.46967 11.6494C3.17678 11.9423 3.17678 12.4171 3.46967 12.71C3.76256 13.0029 4.23744 13.0029 4.53033 12.71L3.46967 11.6494ZM12.9299 3.99982C12.9299 3.58561 12.5941 3.24982 12.1799 3.24982L5.42987 3.24982C5.01565 3.24982 4.67987 3.58561 4.67987 3.99982C4.67987 4.41404 5.01565 4.74982 5.42987 4.74982H11.4299V10.7498C11.4299 11.164 11.7657 11.4998 12.1799 11.4998C12.5941 11.4998 12.9299 11.164 12.9299 10.7498L12.9299 3.99982ZM4.53033 12.71L12.7102 4.53015L11.6495 3.46949L3.46967 11.6494L4.53033 12.71Z" fill="#000000"/>
</svg>
