<svg width="53" height="53" viewBox="0 0 53 53" fill="none" xmlns="http://www.w3.org/2000/svg">
<rect x="0.5" y="0.5" width="52" height="52" rx="11.5" stroke="#DADADA"/>
<path d="M33.5747 26.9127L31.543 21.8333C31.505 21.7394 31.4397 21.659 31.3557 21.6024C31.2716 21.5458 31.1725 21.5157 31.0712 21.5159C31.0342 21.5164 30.9974 21.5209 30.9614 21.5292L27.0077 22.4048V21.0079C27.0077 20.8732 26.9542 20.744 26.8589 20.6488C26.7637 20.5535 26.6345 20.5 26.4998 20.5C26.3651 20.5 26.2359 20.5535 26.1406 20.6488C26.0454 20.744 25.9918 20.8732 25.9918 21.0079V22.6321L21.8185 23.5609C21.7381 23.5785 21.6631 23.6154 21.6 23.6683C21.537 23.7213 21.4878 23.7888 21.4566 23.8651L19.4249 28.9444C19.4006 29.005 19.3883 29.0697 19.3887 29.1349C19.3887 30.6149 20.9468 31.1667 21.9284 31.1667C22.9099 31.1667 24.468 30.6149 24.468 29.1349C24.4684 29.0697 24.4562 29.005 24.4318 28.9444L22.6217 24.4219L25.9918 23.6746V31.6746H24.976C24.8413 31.6746 24.7121 31.7281 24.6168 31.8234C24.5216 31.9186 24.468 32.0478 24.468 32.1825C24.468 32.3172 24.5216 32.4464 24.6168 32.5417C24.7121 32.6369 24.8413 32.6905 24.976 32.6905H28.0236C28.1583 32.6905 28.2875 32.6369 28.3828 32.5417C28.478 32.4464 28.5315 32.3172 28.5315 32.1825C28.5315 32.0478 28.478 31.9186 28.3828 31.8234C28.2875 31.7281 28.1583 31.6746 28.0236 31.6746H27.0077V23.4473L30.2458 22.7286L28.5677 26.9127C28.5434 26.9732 28.5311 27.0379 28.5315 27.1032C28.5315 28.5832 30.0896 29.1349 31.0712 29.1349C32.0528 29.1349 33.6109 28.5832 33.6109 27.1032C33.6113 27.0379 33.599 26.9732 33.5747 26.9127ZM23.416 29.1349H20.4439L21.8185 29.3L23.416 29.1349ZM29.5899 27.1032L30.4996 28.1L32.5556 27.1032H29.5899Z" fill="#9B9B9B"/>
</svg>
