<svg width="13" height="20" viewBox="0 0 13 20" fill="none" xmlns="http://www.w3.org/2000/svg">
<g clip-path="url(#clip0_1999_1690)">
<path d="M12.0656 7.32446L10.5469 16.3911C10.5231 16.5212 10.4546 16.6389 10.3531 16.7237C10.2517 16.8086 10.1238 16.8553 9.99158 16.8558H3.01024C2.87801 16.8553 2.7501 16.8086 2.64868 16.7237C2.54726 16.6389 2.47871 16.5212 2.45491 16.3911L0.936245 7.32446C0.923163 7.24376 0.927695 7.16119 0.94953 7.08242C0.971365 7.00364 1.00998 6.93052 1.06274 6.86808C1.1155 6.80563 1.18114 6.75534 1.25516 6.72065C1.32918 6.68596 1.40983 6.6677 1.49158 6.66712H11.4989C11.5816 6.66606 11.6635 6.6831 11.7389 6.71707C11.8144 6.75104 11.8814 6.8011 11.9354 6.86374C11.9894 6.92638 12.0291 7.00009 12.0515 7.07968C12.074 7.15927 12.0788 7.24282 12.0656 7.32446ZM12.7342 4.96712C12.7342 5.11741 12.6745 5.26155 12.5683 5.36782C12.462 5.47409 12.3179 5.53379 12.1676 5.53379H0.834245C0.683955 5.53379 0.539822 5.47409 0.433551 5.36782C0.32728 5.26155 0.267578 5.11741 0.267578 4.96712C0.267578 4.81683 0.32728 4.6727 0.433551 4.56643C0.539822 4.46016 0.683955 4.40046 0.834245 4.40046H3.66758V2.70046C3.66758 2.55017 3.72728 2.40603 3.83355 2.29976C3.93982 2.19349 4.08396 2.13379 4.23424 2.13379H8.76758C8.91787 2.13379 9.062 2.19349 9.16827 2.29976C9.27454 2.40603 9.33424 2.55017 9.33424 2.70046V4.40046H12.1676C12.3179 4.40046 12.462 4.46016 12.5683 4.56643C12.6745 4.6727 12.7342 4.81683 12.7342 4.96712ZM8.20091 4.40046V3.26712H4.80091V4.40046H8.20091Z" fill="#EFEFEF"/>
</g>
<defs>
<clipPath id="clip0_1999_1690">
<rect width="13" height="15" fill="white" transform="translate(0 2)"/>
</clipPath>
</defs>
</svg>
