<svg width="16.000000" height="16.000000" viewBox="0 0 16 16" fill="none" xmlns="http://www.w3.org/2000/svg" xmlns:xlink="http://www.w3.org/1999/xlink">
	<desc>
			Created with Pixso.
	</desc>
	<defs/>
	<path id="Vector" d="M1.89 3.57C0.96 3.57 0.21 2.82 0.21 1.89C0.21 0.96 0.96 0.21 1.89 0.21C2.82 0.21 3.57 0.96 3.57 1.89C3.57 2.82 2.82 3.57 1.89 3.57Z" stroke="#FFFFFF" stroke-opacity="1.000000" stroke-width="1.000000" stroke-linejoin="round"/>
	<path id="Vector" d="M3.57 1.89L14.78 1.89" stroke="#FFFFFF" stroke-opacity="1.000000" stroke-width="1.000000" stroke-linejoin="round" stroke-linecap="round"/>
	<path id="Vector" d="M7.5 9.18C6.57 9.18 5.81 8.42 5.81 7.5C5.81 6.57 6.57 5.81 7.5 5.81C8.42 5.81 9.18 6.57 9.18 7.5C9.18 8.42 8.42 9.18 7.5 9.18Z" stroke="#FFFFFF" stroke-opacity="1.000000" stroke-width="1.000000" stroke-linejoin="round"/>
	<path id="Vector" d="M0.21 7.5L5.81 7.5M9.18 7.5L14.78 7.5" stroke="#FFFFFF" stroke-opacity="1.000000" stroke-width="1.000000" stroke-linejoin="round"/>
	<path id="Vector" d="M13.1 14.78C12.17 14.78 11.42 14.03 11.42 13.1C11.42 12.17 12.17 11.42 13.1 11.42C14.03 11.42 14.78 12.17 14.78 13.1C14.78 14.03 14.03 14.78 13.1 14.78Z" stroke="#FFFFFF" stroke-opacity="1.000000" stroke-width="1.000000" stroke-linejoin="round"/>
	<path id="Vector" d="M11.42 13.1L0.21 13.1" stroke="#FFFFFF" stroke-opacity="1.000000" stroke-width="1.000000" stroke-linejoin="round" stroke-linecap="round"/>
</svg>
