<svg width="12.000000" height="12.000000" viewBox="0 0 12 12" fill="none" xmlns="http://www.w3.org/2000/svg" xmlns:xlink="http://www.w3.org/1999/xlink">
	<desc>
			Created with Pixso.
	</desc>
	<defs/>
	<path id="Vector" d="M12 6C12 2.68 9.31 0 6 0C2.68 0 0 2.68 0 6C0 8.9 2.06 11.32 4.8 11.88L4.8 7.8L3.59 7.8L3.59 6L4.8 6L4.8 4.5C4.8 3.34 5.74 2.4 6.9 2.4L8.4 2.4L8.4 4.19L7.19 4.19C6.86 4.19 6.59 4.47 6.59 4.8L6.59 6L8.4 6L8.4 7.8L6.59 7.8L6.59 11.97C9.63 11.66 12 9.11 12 6Z" fill="#2A2A2A" fill-opacity="1.000000" fill-rule="nonzero"/>
</svg>
