<svg width="12.000000" height="12.000000" viewBox="0 0 12 12" fill="none" xmlns="http://www.w3.org/2000/svg" xmlns:xlink="http://www.w3.org/1999/xlink">
	<desc>
			Created with Pixso.
	</desc>
	<defs/>
	<path id="Vector" d="M8.76 0L3.23 0C2.37 0 1.55 0.34 0.94 0.94C0.34 1.55 0 2.37 0 3.23L0 8.76C0 9.62 0.34 10.44 0.94 11.05C1.55 11.65 2.37 12 3.23 12L8.76 12C9.62 12 10.44 11.65 11.05 11.05C11.65 10.44 12 9.62 12 8.76L12 3.23C12 2.37 11.65 1.55 11.05 0.94C10.44 0.34 9.62 0 8.76 0ZM6 8.76C5.45 8.76 4.91 8.6 4.46 8.3C4 7.99 3.65 7.56 3.44 7.06C3.23 6.55 3.17 5.99 3.28 5.45C3.39 4.92 3.65 4.42 4.04 4.04C4.42 3.65 4.92 3.39 5.45 3.28C5.99 3.17 6.55 3.23 7.06 3.44C7.56 3.65 7.99 4 8.3 4.46C8.6 4.91 8.76 5.45 8.76 6C8.76 6.73 8.47 7.43 7.95 7.95C7.43 8.47 6.73 8.76 6 8.76ZM9.46 3.23C9.32 3.23 9.19 3.18 9.07 3.11C8.96 3.03 8.87 2.92 8.82 2.8C8.76 2.67 8.75 2.53 8.78 2.4C8.8 2.26 8.87 2.14 8.97 2.04C9.06 1.95 9.19 1.88 9.32 1.85C9.46 1.83 9.59 1.84 9.72 1.89C9.85 1.95 9.96 2.03 10.03 2.15C10.11 2.26 10.15 2.4 10.15 2.53C10.15 2.72 10.08 2.89 9.95 3.02C9.82 3.15 9.64 3.23 9.46 3.23ZM7.84 6C7.84 6.36 7.73 6.72 7.53 7.02C7.33 7.33 7.04 7.56 6.7 7.7C6.36 7.84 5.99 7.88 5.64 7.81C5.28 7.74 4.95 7.56 4.69 7.3C4.43 7.04 4.25 6.71 4.18 6.35C4.11 6 4.15 5.63 4.29 5.29C4.43 4.95 4.66 4.66 4.97 4.46C5.27 4.26 5.63 4.15 6 4.15C6.49 4.15 6.95 4.34 7.3 4.69C7.65 5.04 7.84 5.5 7.84 6Z" fill="#2A2A2A" fill-opacity="1.000000" fill-rule="nonzero"/>
</svg>
