<svg width="10.000000" height="12.000000" viewBox="0 0 10 12" fill="none" xmlns="http://www.w3.org/2000/svg" xmlns:xlink="http://www.w3.org/1999/xlink">
	<desc>
			Created with Pixso.
	</desc>
	<defs/>
	<path id="Vector" d="M7.93 1.79C7.49 1.3 7.25 0.66 7.25 0L5.28 0L5.28 7.9C5.27 8.33 5.09 8.74 4.78 9.03C4.47 9.33 4.06 9.5 3.63 9.5C2.73 9.5 1.97 8.76 1.97 7.84C1.97 6.74 3.03 5.92 4.12 6.26L4.12 4.24C1.92 3.95 0 5.66 0 7.84C0 9.96 1.75 11.48 3.62 11.48C5.63 11.48 7.25 9.85 7.25 7.84L7.25 3.83C8.05 4.4 9.01 4.71 10 4.71L10 2.74C10 2.74 8.8 2.79 7.93 1.79Z" fill="#2A2A2A" fill-opacity="1.000000" fill-rule="nonzero"/>
</svg>
