<svg width="214" height="215" viewBox="0 0 214 215" fill="none" xmlns="http://www.w3.org/2000/svg">
<path d="M196.821 90.7524C206.071 140.359 173.354 188.072 123.747 197.321C74.1405 206.57 26.4282 173.854 17.1789 124.247C7.92965 74.6401 40.646 26.9278 90.2528 17.6785C139.86 8.42924 187.572 41.1455 196.821 90.7524Z" fill="#F93F04"/>
<path d="M181.202 96.0698L181.45 99.0186L171.021 102.58L171.157 104.197L182.035 105.963L182.284 108.911L168.678 106.609L168.173 100.617L181.202 96.0698Z" fill="#2A2A2A"/>
<path d="M168.64 110.961L181.982 111.729L181.818 114.588L168.475 113.82L168.64 110.961Z" fill="#2A2A2A"/>
<path d="M168.466 115.767L181.581 118.335L179.655 128.171L177.032 127.658L178.408 120.632L175.785 120.118L174.684 125.739L172.249 125.262L173.349 119.641L170.539 119.091L169.163 126.117L166.54 125.603L168.466 115.767Z" fill="#2A2A2A"/>
<path d="M179.123 131.322L177.9 134.016L167.597 131.539L167.518 131.713L176.163 137.84L174.584 141.317L164.281 138.84L164.202 139.014L172.847 145.141L171.624 147.836L160.6 139.789L162.337 135.965L172.205 138.245L172.284 138.071L164.073 132.14L165.81 128.316L179.123 131.322Z" fill="#2A2A2A"/>
<path d="M156.181 148.808C158.107 148.764 159.794 149.449 161.244 150.861C162.694 152.273 163.418 153.937 163.416 155.854C163.415 157.79 162.668 159.523 161.176 161.055C159.498 162.778 157.604 163.51 155.494 163.25C154.548 163.145 153.657 162.855 152.823 162.38L154.888 160.26C155.313 160.444 155.774 160.537 156.269 160.539C157.403 160.524 158.4 160.075 159.262 159.19C160.132 158.296 160.555 157.269 160.53 156.109C160.506 154.966 160.034 153.946 159.113 153.049C158.156 152.117 157.119 151.649 156.003 151.645C154.887 151.66 153.876 152.133 152.97 153.063C152.064 153.993 151.655 155.051 151.743 156.238C151.795 156.786 151.932 157.284 152.154 157.731L150.089 159.851C149.573 158.94 149.241 158.004 149.094 157.043C148.776 154.815 149.43 152.866 151.055 151.198C152.547 149.666 154.256 148.869 156.181 148.808Z" fill="white"/>
<path d="M145.027 159.471C146.941 159.902 148.418 160.956 149.457 162.634C150.496 164.311 150.778 166.097 150.305 167.992C149.828 169.904 148.702 171.41 146.928 172.509C145.153 173.609 143.309 173.942 141.395 173.511C139.476 173.097 137.998 172.052 136.959 170.374C135.92 168.697 135.639 166.902 136.117 164.99C136.59 163.095 137.714 161.598 139.488 160.499C141.263 159.399 143.109 159.057 145.027 159.471ZM147.496 167.553C147.749 166.439 147.537 165.335 146.86 164.242C146.183 163.149 145.286 162.462 144.168 162.181C143.047 161.917 141.956 162.114 140.896 162.771C139.835 163.428 139.179 164.313 138.926 165.428C138.669 166.56 138.879 167.673 139.556 168.766C140.233 169.859 141.132 170.537 142.254 170.801C143.371 171.082 144.46 170.894 145.52 170.237C146.581 169.58 147.239 168.686 147.496 167.553Z" fill="white"/>
<path d="M132.31 164.873L136.842 177.445L134.148 178.416L130.522 168.358L124.326 170.592L123.419 168.078L132.31 164.873Z" fill="white"/>
<path d="M122.628 168.197L125.027 181.344L122.21 181.858L120.291 171.34L113.811 172.523L113.331 169.893L122.628 168.197Z" fill="white"/>
<path d="M112.816 169.895L112.965 183.258L102.942 183.37L102.913 180.698L110.072 180.618L110.042 177.945L104.315 178.009L104.287 175.527L110.014 175.463L109.982 172.6L102.823 172.679L102.793 170.007L112.816 169.895Z" fill="white"/>
<path d="M99.955 171.341C101.027 172.942 101.357 174.733 100.946 176.714C100.535 178.696 99.5205 180.201 97.903 181.23C96.2705 182.27 94.4073 182.572 92.3136 182.137C89.9582 181.649 88.3231 180.445 87.4083 178.526C86.9876 177.672 86.7533 176.765 86.7052 175.807L89.6028 176.408C89.6769 176.865 89.846 177.303 90.11 177.722C90.7323 178.67 91.6478 179.269 92.8567 179.52C94.078 179.774 95.1715 179.578 96.1372 178.934C97.0879 178.299 97.6938 177.352 97.955 176.094C98.2265 174.785 98.0636 173.659 97.4663 172.716C96.854 171.783 95.9122 171.185 94.641 170.921C93.3699 170.657 92.2574 170.882 91.3037 171.594C90.8694 171.932 90.5234 172.316 90.2657 172.743L87.3682 172.142C87.8591 171.217 88.4701 170.434 89.2011 169.792C90.9091 168.327 92.9035 167.831 95.1841 168.304C97.2778 168.738 98.8681 169.751 99.955 171.341Z" fill="white"/>
<path d="M83.5676 176.779L82.4713 179.216L72.024 174.518L73.1203 172.08L77.038 173.842L81.4233 164.091L84.0351 165.266L79.6499 175.017L83.5676 176.779Z" fill="white"/>
<path d="M76.6498 161.572L69.6208 172.939L67.1851 171.433L74.2141 160.066L76.6498 161.572Z" fill="white"/>
<path d="M70.4114 159.705C70.5697 161.661 70.003 163.385 68.7114 164.876C67.4198 166.367 65.799 167.169 63.849 167.282C61.8811 167.396 60.1083 166.77 58.5304 165.403C56.9526 164.036 56.0845 162.375 55.9262 160.419C55.75 158.465 56.3076 156.742 57.5993 155.251C58.8909 153.76 60.5207 152.957 62.4886 152.843C64.4385 152.73 66.2024 153.357 67.7802 154.724C69.3581 156.09 70.2351 157.751 70.4114 159.705ZM63.4308 164.47C64.5702 164.379 65.5607 163.848 66.4024 162.876C67.244 161.904 67.6326 160.843 67.5682 159.693C67.4858 158.544 66.9731 157.561 66.0303 156.744C65.0874 155.928 64.0463 155.565 62.9069 155.655C61.7495 155.747 60.7499 156.279 59.9083 157.251C59.0666 158.223 58.687 159.283 58.7694 160.432C58.8339 161.582 59.3376 162.566 60.2804 163.383C61.2232 164.199 62.2734 164.562 63.4308 164.47Z" fill="white"/>
<path d="M61.4478 149.426L50.5843 157.21L48.4159 154.184L53.0398 144.412L52.9286 144.256L51.7207 145.357L45.3578 149.916L43.6898 147.588L54.5532 139.804L56.7217 142.83L52.0977 152.603L52.2089 152.758L53.4169 151.657L59.7798 147.098L61.4478 149.426Z" fill="white"/>
<path d="M47.1379 133.225C46.9044 133.732 46.525 134.082 45.9996 134.276C45.4743 134.47 44.9642 134.448 44.4693 134.211C43.9625 133.977 43.6143 133.604 43.4247 133.09C43.2352 132.577 43.2571 132.067 43.4906 131.56C43.7122 131.057 44.0856 130.709 44.611 130.515C45.1364 130.321 45.6525 130.341 46.1593 130.575C46.6541 130.812 46.9963 131.188 47.1859 131.701C47.3755 132.215 47.3595 132.723 47.1379 133.225Z" fill="#2A2A2A"/>
<path d="M34.0493 122.479L33.7667 119.533L44.1542 115.851L43.9992 114.236L33.1013 112.596L32.8187 109.65L46.4502 111.795L47.0245 117.782L34.0493 122.479Z" fill="#2A2A2A"/>
<path d="M46.4326 107.484L33.0824 106.868L33.2143 104.008L46.5646 104.624L46.4326 107.484Z" fill="#2A2A2A"/>
<path d="M46.5186 102.905L33.3662 100.534L35.1447 90.6696L37.7752 91.1439L36.5048 98.1898L39.1353 98.664L40.1516 93.0273L42.5942 93.4677L41.5779 99.1044L44.3962 99.6126L45.6666 92.5667L48.2971 93.041L46.5186 102.905Z" fill="#2A2A2A"/>
<path d="M35.6651 87.2973L36.8591 84.5896L47.1885 86.9536L47.2656 86.7789L38.5538 80.7464L40.0944 77.2526L50.4239 79.6165L50.5009 79.4419L41.7891 73.4094L42.9831 70.7017L54.0945 78.6269L52.3998 82.4701L42.507 80.2987L42.43 80.4734L50.7051 86.3133L49.0104 90.1565L35.6651 87.2973Z" fill="#2A2A2A"/>
<path d="M58.377 69.5226C56.452 69.5872 54.7569 68.9214 53.2917 67.5254C51.8265 66.1294 51.0842 64.4729 51.0649 62.5558C51.0451 60.6207 51.7727 58.8791 53.2477 57.3309C54.9071 55.5893 56.793 54.837 58.9054 55.074C59.8529 55.1681 60.7465 55.4481 61.586 55.9139L59.5446 58.0564C59.1172 57.8777 58.6559 57.7898 58.1609 57.7928C57.0272 57.8202 56.0345 58.2809 55.1829 59.1747C54.3224 60.0778 53.9108 61.1095 53.9478 62.27C53.9844 63.4125 54.4681 64.4271 55.3988 65.3138C56.3664 66.2357 57.4083 66.6922 58.5244 66.6832C59.6401 66.6562 60.6457 66.1728 61.5412 65.2328C62.4368 64.2929 62.8342 63.23 62.7335 62.044C62.6752 61.4963 62.5327 61.0001 62.3059 60.5554L64.3472 58.4129C64.8733 59.3185 65.2154 60.251 65.3736 61.2105C65.7155 63.4349 65.0831 65.3903 63.4764 67.0766C62.0014 68.6247 60.3016 69.4401 58.377 69.5226Z" fill="white"/>
<path d="M69.2073 58.8283C67.2885 58.4185 65.8003 57.3808 64.7427 55.7154C63.6851 54.05 63.3822 52.2672 63.834 50.3669C64.2897 48.4492 65.3986 46.9308 67.1608 45.8117C68.9229 44.6927 70.7633 44.3381 72.6821 44.748C74.6049 45.1403 76.0951 46.1691 77.1527 47.8346C78.2103 49.5 78.5112 51.2916 78.0555 53.2094C77.6036 55.1096 76.4967 56.6192 74.7346 57.7382C72.9724 58.8572 71.13 59.2206 69.2073 58.8283ZM66.648 50.7737C66.4077 51.8913 66.6322 52.9926 67.3214 54.0778C68.0105 55.163 68.9153 55.8399 70.0357 56.1084C71.1601 56.3594 72.2487 56.1505 73.3017 55.4819C74.3546 54.8132 75.0012 53.9201 75.2415 52.8026C75.4856 51.6675 75.2631 50.5573 74.574 49.4721C73.8848 48.3869 72.9781 47.7188 71.8537 47.4679C70.7333 47.1993 69.6466 47.3994 68.5936 48.0681C67.5407 48.7368 66.8921 49.6387 66.648 50.7737Z" fill="white"/>
<path d="M81.7098 53.2837L76.9852 40.7823L79.6641 39.7699L83.4438 49.771L89.6052 47.4424L90.5501 49.9427L81.7098 53.2837Z" fill="white"/>
<path d="M91.4712 49.7471L88.8696 36.6383L91.6786 36.0808L93.7599 46.5679L100.221 45.2857L100.741 47.9074L91.4712 49.7471Z" fill="white"/>
<path d="M101.139 47.8667L100.836 34.5057L110.857 34.2787L110.917 36.9509L103.759 37.113L103.82 39.7852L109.546 39.6555L109.602 42.1368L103.876 42.2666L103.941 45.1296L111.099 44.9675L111.159 47.6397L101.139 47.8667Z" fill="white"/>
<path d="M114.055 46.1903C112.966 44.6021 112.615 42.815 113.004 40.829C113.393 38.843 114.391 37.3263 115.996 36.2789C117.617 35.2215 119.477 34.8982 121.575 35.3091C123.936 35.7714 125.584 36.9567 126.521 38.8651C126.951 39.7145 127.196 40.6184 127.254 41.5767L124.35 41.008C124.271 40.5515 124.097 40.1154 123.828 39.6996C123.195 38.7586 122.273 38.1695 121.062 37.9322C119.837 37.6925 118.746 37.9003 117.788 38.5557C116.844 39.201 116.249 40.1545 116.002 41.416C115.745 42.7276 115.921 43.8514 116.529 44.7875C117.151 45.7136 118.1 46.3014 119.374 46.5509C120.648 46.8004 121.758 46.5637 122.703 45.841C123.134 45.4973 123.476 45.1103 123.728 44.6799L126.633 45.2486C126.152 46.1791 125.55 46.9691 124.826 47.6185C123.135 49.1031 121.146 49.6215 118.86 49.1739C116.762 48.763 115.16 47.7685 114.055 46.1903Z" fill="white"/>
<path d="M130.36 40.4894L131.42 38.0359L141.935 42.5809L140.875 45.0344L136.931 43.33L132.689 53.144L130.061 52.0078L134.303 42.1938L130.36 40.4894Z" fill="white"/>
<path d="M137.802 55.7442L144.707 44.3015L147.159 45.7811L140.254 57.2238L137.802 55.7442Z" fill="white"/>
<path d="M143.927 57.4112C143.748 55.4574 144.296 53.7278 145.571 52.2226C146.846 50.7173 148.458 49.8976 150.407 49.7635C152.373 49.628 154.153 50.2349 155.745 51.5842C157.338 52.9335 158.224 54.5851 158.404 56.5389C158.602 58.4913 158.063 60.2201 156.787 61.7254C155.512 63.2306 153.891 64.0511 151.925 64.1866C149.976 64.3207 148.206 63.7131 146.613 62.3638C145.02 61.0145 144.125 59.3636 143.927 57.4112ZM150.856 52.5711C149.717 52.6743 148.733 53.2163 147.902 54.1972C147.071 55.178 146.694 56.2432 146.771 57.3928C146.866 58.5409 147.389 59.5181 148.341 60.3244C149.292 61.1307 150.337 61.4822 151.476 61.3791C152.632 61.2744 153.626 60.7316 154.457 59.7508C155.288 58.7699 155.656 57.7055 155.561 56.5574C155.484 55.4078 154.969 54.4299 154.018 53.6236C153.066 52.8173 152.012 52.4664 150.856 52.5711Z" fill="white"/>
<path d="M153.111 67.6375L163.887 59.7327L166.089 62.7346L161.574 72.5578L161.687 72.7118L162.883 71.598L169.194 66.968L170.888 69.2772L160.112 77.182L157.91 74.1801L162.425 64.3568L162.312 64.2029L161.116 65.3167L154.805 69.9466L153.111 67.6375Z" fill="white"/>
<path d="M167.664 83.7357C167.892 83.2263 168.267 82.8716 168.791 82.6716C169.314 82.4716 169.824 82.4877 170.322 82.7199C170.831 82.9476 171.183 83.317 171.379 83.8282C171.574 84.3394 171.558 84.8498 171.331 85.3592C171.115 85.8641 170.745 86.2166 170.222 86.4166C169.699 86.6166 169.183 86.6027 168.673 86.3751C168.176 86.1429 167.829 85.7712 167.634 85.2599C167.438 84.7487 167.449 84.2407 167.664 83.7357Z" fill="#2A2A2A"/>
<path d="M135.222 106.975C136.074 105.732 135.757 104.035 134.515 103.183L114.27 89.301C113.028 88.4492 111.33 88.7657 110.479 90.008C109.627 91.2503 109.943 92.948 111.186 93.7998L129.181 106.139L116.841 124.134C115.99 125.377 116.306 127.074 117.548 127.926C118.791 128.778 120.488 128.462 121.34 127.219L135.222 106.975ZM82.5292 117.612L133.473 108.113L132.473 102.751L81.5294 112.249L82.5292 117.612Z" fill="white"/>
</svg>
